<svg width="16" height="18" viewBox="0 0 16 18" fill="none" xmlns="http://www.w3.org/2000/svg">
<path id="Vector" d="M2.66667 0C1.95942 0 1.28115 0.237053 0.781048 0.65901C0.280951 1.08097 0 1.65326 0 2.25V15.75C0 16.3467 0.280951 16.919 0.781048 17.341C1.28115 17.7629 1.95942 18 2.66667 18H15.3333C15.5101 18 15.6797 17.9407 15.8047 17.8352C15.9298 17.7298 16 17.5867 16 17.4375C16 17.2883 15.9298 17.1452 15.8047 17.0398C15.6797 16.9343 15.5101 16.875 15.3333 16.875H2.66667C2.31304 16.875 1.97391 16.7565 1.72386 16.5455C1.47381 16.3345 1.33333 16.0484 1.33333 15.75H14.6667C15.0203 15.75 15.3594 15.6315 15.6095 15.4205C15.8595 15.2095 16 14.9234 16 14.625V2.25C16 1.65326 15.719 1.08097 15.219 0.65901C14.7189 0.237053 14.0406 0 13.3333 0H2.66667ZM9 4.21875C9 4.44253 8.89464 4.65714 8.70711 4.81537C8.51957 4.97361 8.26522 5.0625 8 5.0625C7.73478 5.0625 7.48043 4.97361 7.29289 4.81537C7.10536 4.65714 7 4.44253 7 4.21875C7 3.99497 7.10536 3.78036 7.29289 3.62213C7.48043 3.46389 7.73478 3.375 8 3.375C8.26522 3.375 8.51957 3.46389 8.70711 3.62213C8.89464 3.78036 9 3.99497 9 4.21875ZM8.66667 11.8125C8.66667 11.9617 8.59643 12.1048 8.47141 12.2102C8.34638 12.3157 8.17681 12.375 8 12.375C7.82319 12.375 7.65362 12.3157 7.52859 12.2102C7.40357 12.1048 7.33333 11.9617 7.33333 11.8125V7.3125C7.33333 7.16332 7.40357 7.02024 7.52859 6.91475C7.65362 6.80926 7.82319 6.75 8 6.75C8.17681 6.75 8.34638 6.80926 8.47141 6.91475C8.59643 7.02024 8.66667 7.16332 8.66667 7.3125V11.8125Z" fill="#929CAD"/>
</svg>
