<svg width="17" height="18" viewBox="0 0 17 18" fill="none" xmlns="http://www.w3.org/2000/svg">
<path id="Vector" d="M4.61333 1.125C4.75126 0.79585 5.00678 0.510895 5.34468 0.309407C5.68258 0.107919 6.08623 -0.00018279 6.5 2.32016e-07H10.5C10.9138 -0.00018279 11.3174 0.107919 11.6553 0.309407C11.9932 0.510895 12.2487 0.79585 12.3867 1.125H14.5C15.0304 1.125 15.5391 1.30279 15.9142 1.61926C16.2893 1.93573 16.5 2.36495 16.5 2.8125V16.3125C16.5 16.7601 16.2893 17.1893 15.9142 17.5057C15.5391 17.8222 15.0304 18 14.5 18H2.5C1.96957 18 1.46086 17.8222 1.08579 17.5057C0.710713 17.1893 0.5 16.7601 0.5 16.3125V2.8125C0.5 2.36495 0.710713 1.93573 1.08579 1.61926C1.46086 1.30279 1.96957 1.125 2.5 1.125H4.61333ZM6.5 1.125C6.32319 1.125 6.15362 1.18426 6.02859 1.28975C5.90357 1.39524 5.83333 1.53832 5.83333 1.6875C5.83333 1.83668 5.90357 1.97976 6.02859 2.08525C6.15362 2.19074 6.32319 2.25 6.5 2.25H10.5C10.6768 2.25 10.8464 2.19074 10.9714 2.08525C11.0964 1.97976 11.1667 1.83668 11.1667 1.6875C11.1667 1.53832 11.0964 1.39524 10.9714 1.28975C10.8464 1.18426 10.6768 1.125 10.5 1.125H6.5ZM13.6387 5.78925C13.5136 5.6838 13.3441 5.62456 13.1673 5.62456C12.9906 5.62456 12.821 5.6838 12.696 5.78925L10.812 7.37775L10.2827 6.9705C10.1511 6.87565 9.98107 6.82766 9.80838 6.83666C9.6357 6.84567 9.47392 6.91097 9.35725 7.01876C9.24057 7.12656 9.17813 7.2684 9.18312 7.41432C9.18812 7.56025 9.26015 7.69881 9.384 7.80075L10.384 8.57138C10.5107 8.66871 10.677 8.72114 10.8483 8.71779C11.0196 8.71444 11.1828 8.65556 11.304 8.55337L13.6373 6.58463C13.7623 6.47914 13.8325 6.33609 13.8325 6.18694C13.8325 6.03778 13.7623 5.89473 13.6373 5.78925H13.6387ZM13.6387 12.2108C13.7638 12.1053 13.8342 11.9622 13.8344 11.8129C13.8345 11.6636 13.7643 11.5204 13.6393 11.4148C13.5143 11.3092 13.3447 11.2498 13.1678 11.2497C12.9909 11.2496 12.8212 11.3088 12.696 11.4142L10.812 13.0027L10.2827 12.5955C10.1511 12.5006 9.98107 12.4527 9.80838 12.4617C9.6357 12.4707 9.47392 12.536 9.35725 12.6438C9.24057 12.7516 9.17813 12.8934 9.18312 13.0393C9.18812 13.1852 9.26015 13.3238 9.384 13.4257L10.384 14.1964C10.5105 14.2939 10.6767 14.3465 10.848 14.3433C11.0193 14.3402 11.1826 14.2815 11.304 14.1795L13.6373 12.2108H13.6387ZM3.83333 6.75C3.65652 6.75 3.48695 6.80926 3.36193 6.91475C3.2369 7.02024 3.16667 7.16332 3.16667 7.3125C3.16667 7.46168 3.2369 7.60476 3.36193 7.71025C3.48695 7.81574 3.65652 7.875 3.83333 7.875H7.16667C7.34348 7.875 7.51305 7.81574 7.63807 7.71025C7.7631 7.60476 7.83333 7.46168 7.83333 7.3125C7.83333 7.16332 7.7631 7.02024 7.63807 6.91475C7.51305 6.80926 7.34348 6.75 7.16667 6.75H3.83333ZM3.16667 12.9375C3.16667 13.0867 3.2369 13.2298 3.36193 13.3352C3.48695 13.4407 3.65652 13.5 3.83333 13.5H7.16667C7.34348 13.5 7.51305 13.4407 7.63807 13.3352C7.7631 13.2298 7.83333 13.0867 7.83333 12.9375C7.83333 12.7883 7.7631 12.6452 7.63807 12.5398C7.51305 12.4343 7.34348 12.375 7.16667 12.375H3.83333C3.65652 12.375 3.48695 12.4343 3.36193 12.5398C3.2369 12.6452 3.16667 12.7883 3.16667 12.9375Z" fill="#728C3B"/>
</svg>
