<svg width="16" height="17" viewBox="0 0 16 17" fill="none" xmlns="http://www.w3.org/2000/svg">
<g id="Group">
<path id="Vector" d="M9.11586 0.427859C8.80926 0.152389 8.41163 0 7.99946 0C7.58728 0 7.18966 0.152389 6.88306 0.427859L0.758179 5.93134C0.584034 6.08795 0.444767 6.27942 0.349417 6.49333C0.254067 6.70725 0.204766 6.93882 0.204712 7.17302V15.0296C0.204712 15.4726 0.380702 15.8975 0.693967 16.2107C1.00723 16.524 1.43211 16.7 1.87513 16.7H4.10236C4.54539 16.7 4.97027 16.524 5.28353 16.2107C5.5968 15.8975 5.77279 15.4726 5.77279 15.0296V10.5751C5.77279 10.4274 5.83145 10.2858 5.93587 10.1814C6.04029 10.077 6.18192 10.0183 6.32959 10.0183H9.67044C9.81811 10.0183 9.95974 10.077 10.0642 10.1814C10.1686 10.2858 10.2272 10.4274 10.2272 10.5751V15.0296C10.2272 15.4726 10.4032 15.8975 10.7165 16.2107C11.0298 16.524 11.4546 16.7 11.8977 16.7H14.1249C14.5679 16.7 14.9928 16.524 15.3061 16.2107C15.6193 15.8975 15.7953 15.4726 15.7953 15.0296V7.17302C15.7953 6.93882 15.746 6.70725 15.6506 6.49333C15.5553 6.27942 15.416 6.08795 15.2419 5.93134L9.11697 0.427859H9.11586Z" fill="#929CAD"/>
</g>
</svg>
