<svg width="32" height="32" viewBox="0 0 32 32" fill="none" xmlns="http://www.w3.org/2000/svg">
<g id="fluent:microscope-20-filled">
<path id="Vector" d="M11.2 4.0002C11.2 3.78802 11.2843 3.58454 11.4343 3.43451C11.5843 3.28448 11.7878 3.2002 12 3.2002H15.2C15.4122 3.2002 15.6157 3.28448 15.7657 3.43451C15.9157 3.58454 16 3.78802 16 4.0002V4.8002H16.8C17.0122 4.8002 17.2157 4.88448 17.3657 5.03451C17.5157 5.18454 17.6 5.38802 17.6 5.6002V8.0482C17.6584 8.0412 17.7175 8.04067 17.776 8.0466C19.938 8.25027 21.982 9.12562 23.6214 10.5499C25.2607 11.9741 26.4131 13.8757 26.9168 15.9881C27.4206 18.1004 27.2505 20.3175 26.4304 22.3283C25.6103 24.3391 24.1814 26.0427 22.344 27.2002H26.4C26.6122 27.2002 26.8157 27.2845 26.9657 27.4345C27.1157 27.5845 27.2 27.788 27.2 28.0002C27.2 28.2124 27.1157 28.4159 26.9657 28.5659C26.8157 28.7159 26.6122 28.8002 26.4 28.8002H5.6C5.38783 28.8002 5.18435 28.7159 5.03432 28.5659C4.88429 28.4159 4.8 28.2124 4.8 28.0002C4.8 27.788 4.88429 27.5845 5.03432 27.4345C5.18435 27.2845 5.38783 27.2002 5.6 27.2002H16.8C19.067 27.2038 21.2479 26.3323 22.8882 24.7675C24.5284 23.2027 25.5016 21.0652 25.6047 18.8006C25.7078 16.536 24.9331 14.3189 23.4418 12.6114C21.9506 10.904 19.8579 9.83793 17.6 9.6354V18.4002C17.6 18.6124 17.5157 18.8159 17.3657 18.9659C17.2157 19.1159 17.0122 19.2002 16.8 19.2002H16V20.0002C16 20.6367 15.7471 21.2472 15.2971 21.6973C14.847 22.1473 14.2365 22.4002 13.6 22.4002C12.9635 22.4002 12.353 22.1473 11.9029 21.6973C11.4529 21.2472 11.2 20.6367 11.2 20.0002V19.2002H10.4C10.1878 19.2002 9.98435 19.1159 9.83432 18.9659C9.68429 18.8159 9.6 18.6124 9.6 18.4002V5.6002C9.6 5.38802 9.68429 5.18454 9.83432 5.03451C9.98435 4.88448 10.1878 4.8002 10.4 4.8002H11.2V4.0002ZM12.8 19.2002V20.0002C12.8 20.2124 12.8843 20.4159 13.0343 20.5659C13.1843 20.7159 13.3878 20.8002 13.6 20.8002C13.8122 20.8002 14.0157 20.7159 14.1657 20.5659C14.3157 20.4159 14.4 20.2124 14.4 20.0002V19.2002H12.8ZM8.8 24.0002C8.58783 24.0002 8.38435 24.0845 8.23432 24.2345C8.08429 24.3845 8 24.588 8 24.8002C8 25.0124 8.08429 25.2159 8.23432 25.3659C8.38435 25.5159 8.58783 25.6002 8.8 25.6002H18.4C18.6122 25.6002 18.8157 25.5159 18.9657 25.3659C19.1157 25.2159 19.2 25.0124 19.2 24.8002C19.2 24.588 19.1157 24.3845 18.9657 24.2345C18.8157 24.0845 18.6122 24.0002 18.4 24.0002H8.8Z" fill="#728C3B"/>
</g>
</svg>
