<svg width="32" height="32" viewBox="0 0 32 32" fill="none" xmlns="http://www.w3.org/2000/svg">
<g filter="url(#filter0_b_302_763)">
<rect width="32" height="32" rx="10" fill="#F5FAFF"/>
<path d="M17.2539 8.37277C17.6699 7.94297 18.1672 7.60025 18.7169 7.3646C19.2667 7.12894 19.8578 7.00505 20.4559 7.00015C21.054 6.99525 21.647 7.10944 22.2006 7.33606C22.7541 7.56268 23.2569 7.8972 23.6799 8.32013C24.1028 8.74305 24.4373 9.24593 24.6639 9.79944C24.8906 10.353 25.0047 10.946 24.9998 11.5441C24.9949 12.1422 24.8711 12.7333 24.6354 13.2831C24.3997 13.8328 24.057 14.3301 23.6272 14.7461L14.6932 23.68C13.8481 24.5252 12.7018 25 11.5066 25C10.3114 25 9.1651 24.5252 8.31995 23.68C7.4748 22.8349 7 21.6886 7 20.4934C7 19.2982 7.4748 18.1519 8.31995 17.3068L17.2539 8.37277ZM22.8377 9.16231C22.2019 8.52666 21.3396 8.16958 20.4406 8.16958C19.5415 8.16958 18.6793 8.52666 18.0435 9.16231L13.9707 13.234L18.7649 18.0282L22.8377 13.9565C23.1526 13.6418 23.4023 13.2681 23.5728 12.8568C23.7432 12.4455 23.8309 12.0046 23.8309 11.5594C23.8309 11.1142 23.7432 10.6734 23.5728 10.2621C23.4023 9.85075 23.1526 9.47705 22.8377 9.16231ZM14.6932 20.657C14.5885 20.5523 14.4465 20.4935 14.2985 20.4935C14.1504 20.4935 14.0084 20.5523 13.9037 20.657L12.2286 22.3321C12.1338 22.427 12.0212 22.5022 11.8974 22.5536C11.7735 22.6049 11.6407 22.6313 11.5066 22.6313C11.3725 22.6313 11.2397 22.6049 11.1158 22.5536C10.992 22.5022 10.8794 22.427 10.7846 22.3321C10.707 22.2528 10.6075 22.1985 10.4987 22.1762C10.39 22.1539 10.2771 22.1646 10.1746 22.207C10.072 22.2494 9.98449 22.3215 9.92325 22.4141C9.862 22.5066 9.82985 22.6154 9.83091 22.7263C9.83092 22.8006 9.84574 22.8741 9.87451 22.9426C9.90327 23.011 9.9454 23.073 9.99843 23.125C10.3996 23.5245 10.9428 23.7485 11.509 23.7478C12.0751 23.7472 12.6178 23.522 13.0181 23.1217L14.6932 21.4465C14.7979 21.3418 14.8567 21.1998 14.8567 21.0518C14.8567 20.9037 14.7979 20.7617 14.6932 20.657Z" fill="#728C3B"/>
</g>
<defs>
<filter id="filter0_b_302_763" x="-5" y="-5" width="42" height="42" filterUnits="userSpaceOnUse" color-interpolation-filters="sRGB">
<feFlood flood-opacity="0" result="BackgroundImageFix"/>
<feGaussianBlur in="BackgroundImageFix" stdDeviation="2.5"/>
<feComposite in2="SourceAlpha" operator="in" result="effect1_backgroundBlur_302_763"/>
<feBlend mode="normal" in="SourceGraphic" in2="effect1_backgroundBlur_302_763" result="shape"/>
</filter>
</defs>
</svg>
